<svg id="Group_196" data-name="Group 196" xmlns="http://www.w3.org/2000/svg" width="20.353" height="20.353" viewBox="0 0 20.353 20.353">
  <path id="Path_183" data-name="Path 183" d="M.264,0H-9.821a5.14,5.14,0,0,0-5.134,5.134V15.219a5.14,5.14,0,0,0,5.134,5.134H.264A5.14,5.14,0,0,0,5.4,15.219V5.134A5.14,5.14,0,0,0,.264,0m2.92,15.219a2.923,2.923,0,0,1-2.92,2.92H-9.821a2.923,2.923,0,0,1-2.919-2.92V5.134A2.922,2.922,0,0,1-9.821,2.215H.264a2.923,2.923,0,0,1,2.92,2.919Z" transform="translate(14.955)"/>
  <path id="Path_184" data-name="Path 184" d="M.022.043A1.241,1.241,0,0,1-1.219-1.2,1.241,1.241,0,0,1,.022-2.438,1.242,1.242,0,0,1,1.262-1.2,1.242,1.242,0,0,1,.022.043" transform="translate(15.566 5.975)"/>
  <path id="Path_185" data-name="Path 185" d="M.091,0a5.242,5.242,0,0,0,0,10.484A5.242,5.242,0,0,0,.091,0m0,8.269a3.027,3.027,0,1,1,0-6.054,3.027,3.027,0,0,1,0,6.054" transform="translate(10.086 4.934)"/>
</svg>
