<svg xmlns="http://www.w3.org/2000/svg" width="17.567" height="17.567" viewBox="0 0 17.567 17.567">
  <g id="Group_4471" data-name="Group 4471" transform="translate(-937.787 -6600.788)">
    <rect id="Rectangle_172" data-name="Rectangle 172" width="3.673" height="11.711" transform="translate(938.08 6606.563)"/>
    <path id="Path_15730" data-name="Path 15730" d="M162.358,146.448q-.208-.023-.426-.032a4.285,4.285,0,0,0-3.62,1.657,2.589,2.589,0,0,0-.16.229v-1.567h-3.513v11.711h3.673v-5.5a4.781,4.781,0,0,1,.336-2.365,1.792,1.792,0,0,1,1.634-.916,1.947,1.947,0,0,1,2.076,2.01V158.5h3.673v-7.639c0-2.614-1.329-4.16-3.673-4.413" transform="translate(789.323 6459.854)"/>
    <path id="Path_15731" data-name="Path 15731" d="M85.919,83.789a2.129,2.129,0,1,1-2.129-2.129,2.129,2.129,0,0,1,2.129,2.129" transform="translate(856.127 6519.127)"/>
  </g>
</svg>
