<svg xmlns="http://www.w3.org/2000/svg" width="16.357" height="20" viewBox="0 0 16.357 20">
  <g id="Group_16575" data-name="Group 16575" transform="translate(-1009.342 -933.012)">
    <path id="Path_167" data-name="Path 167" d="M16.354,8.164A8.174,8.174,0,0,0,.006,8.119a12.684,12.684,0,0,0,7.8,11.8A.956.956,0,0,0,8.18,20a.9.9,0,0,0,.348-.069l.042-.019A12.681,12.681,0,0,0,16.354,8.164M8.181,18.087A10.65,10.65,0,0,1,1.823,8.181a6.357,6.357,0,1,1,12.713,0c0,.018,0,.041,0,.06a10.639,10.639,0,0,1-6.356,9.846" transform="translate(1009.342 933.012)" fill="#00338a"/>
    <path id="Path_168" data-name="Path 168" d="M20.357,16.729a3.636,3.636,0,1,0,3.636,3.636,3.64,3.64,0,0,0-3.636-3.636m0,5.454a1.818,1.818,0,1,1,1.818-1.818,1.821,1.821,0,0,1-1.818,1.818" transform="translate(997.164 920.828)" fill="#00338a"/>
  </g>
</svg>
