<svg xmlns="http://www.w3.org/2000/svg" width="20.14" height="20.141" viewBox="0 0 20.14 20.141">
  <path id="Path_166" data-name="Path 166" d="M12.183,5.894a2.848,2.848,0,0,1,.6-3.151L14.689.833a2.809,2.809,0,0,1,2.432-.8,2.834,2.834,0,0,1,2.1,1.5A7.855,7.855,0,0,1,19.889,7.2c-1.218,4.833-7.861,11.476-12.694,12.693a8.133,8.133,0,0,1-1.995.251,7.83,7.83,0,0,1-3.669-.917,2.846,2.846,0,0,1-.7-4.533l1.909-1.911a2.851,2.851,0,0,1,3.153-.594,4.463,4.463,0,0,1,1.347.9c.162.163.465.187.894.071a9.134,9.134,0,0,0,5.024-5.024c.115-.431.092-.731-.071-.9a4.487,4.487,0,0,1-.9-1.348M8.61,14.929a2.57,2.57,0,0,1-2.664-.545,2.633,2.633,0,0,0-.8-.526,1,1,0,0,0-1.112.218l-1.909,1.91a1,1,0,0,0-.284.863,1.022,1.022,0,0,0,.541.756,5.982,5.982,0,0,0,4.364.51C10.9,17.067,17.066,10.907,18.113,6.749A5.974,5.974,0,0,0,17.6,2.385a1.021,1.021,0,0,0-.756-.541,1,1,0,0,0-.862.283L14.075,4.038a1,1,0,0,0-.219,1.11,2.664,2.664,0,0,0,.526.8,2.578,2.578,0,0,1,.545,2.662A10.9,10.9,0,0,1,8.61,14.929" transform="translate(0 0)" fill="#00338a"/>
</svg>
