<svg xmlns="http://www.w3.org/2000/svg" width="215.501" height="97.97" viewBox="0 0 215.501 97.97">
  <g id="Group_136" data-name="Group 136" transform="translate(-47.2 -41.717)">
    <path id="Path_110" data-name="Path 110" d="M123.014,94.06h-3.723a1.593,1.593,0,0,1-1.354-2.353c.3-.478.488-.558.188-1.157l-4.137-7.777c-.339-.638-.452-.638-1.016-.638h-2.9a.831.831,0,0,0-.714.8v7.418c0,.12.3.438.451.558a1.7,1.7,0,0,1,.752,1.715A1.6,1.6,0,0,1,108.8,94.06h-2.971a1.626,1.626,0,0,1-1.767-1.436c0-1.755,1.165-1.675,1.165-2.273V68.218A.989.989,0,0,0,105,67.7a1.662,1.662,0,0,1,1.2-2.872h10.08a8.426,8.426,0,0,1,8.237,8.654,8.848,8.848,0,0,1-5.266,8.255c-.339.12-.564.439-.3.958l3.724,7.019c.113.2.414.8.827.956a1.738,1.738,0,0,1,1.317,1.8c0,1.236-.94,1.6-1.806,1.6m-7.672-25.005h-5.378a.629.629,0,0,0-.6.519V77.23c0,.6.339.638.6.638h5.378c2.858,0,4.814-1.515,4.814-4.506,0-2.871-1.993-4.307-4.814-4.307" transform="translate(-56.859 24.138)" fill="#00338a"/>
    <path id="Path_111" data-name="Path 111" d="M154.716,94.059h-17a1.626,1.626,0,0,1-1.241-2.672,2.889,2.889,0,0,0,.225-1.236V68.535c0-.478-.075-.638-.225-.8a1.86,1.86,0,0,1-.527-1.316,1.633,1.633,0,0,1,1.655-1.595h16.135a1.167,1.167,0,0,1,1.279,1.236v2.313c0,1.076-.527,1.754-1.58,1.754-1.391,0-.639-1.077-2.181-1.077H141.59a.749.749,0,0,0-.676.719v6.46a.829.829,0,0,0,.714.837h7.635c.79,0,1.015,0,1.278-.2a1.87,1.87,0,0,1,1.2-.439,1.438,1.438,0,0,1,1.618,1.635V80.14a1.525,1.525,0,0,1-1.693,1.635,1.484,1.484,0,0,1-1.316-.677.868.868,0,0,0-.527-.12h-8.2a.809.809,0,0,0-.752.6v7.538a.718.718,0,0,0,.676.718h10.532c1.241,0,1.015-1.037,2.407-1.037a1.472,1.472,0,0,1,1.58,1.675V92.9c0,.8-.64,1.157-1.354,1.157" transform="translate(-65.507 24.138)" fill="#00338a"/>
    <path id="Path_112" data-name="Path 112" d="M191.14,94.059h-2.6c-1.467,0-1.768-.719-1.768-1.635,0-.758.64-.958.452-1.716l-2.294-5.583a1.212,1.212,0,0,0-.978-.6h-9.29a.669.669,0,0,0-.677.478L171.7,90.868c-.112.679.489.918.489,1.635a1.582,1.582,0,0,1-1.579,1.555H167.6c-.715,0-1.391-.719-.9-1.994L177.036,65.9a1.463,1.463,0,0,1,1.467-1.077h1.541a1.617,1.617,0,0,1,1.542,1.077l10.795,26.241a1.276,1.276,0,0,1-1.241,1.914M179.706,72.523c-.151-.439-.527-.478-.677-.04L176.1,79.741a.607.607,0,0,0,.6.877h5.6c.451,0,.564-.438.375-.877Z" transform="translate(-73.799 24.138)" fill="#00338a"/>
    <path id="Path_113" data-name="Path 113" d="M223.351,94.059H207.215a1.683,1.683,0,0,1-1.654-1.595c0-1.157.79-1.157.79-2.114V68.535c0-.517-1.2-.718-1.2-2.034a1.629,1.629,0,0,1,1.767-1.674h2.971a1.656,1.656,0,0,1,1.806,1.674c0,1.316-1.2,1.517-1.2,2.034V89.114a.681.681,0,0,0,.714.718h9.29c1.542,0,1.128-1.076,2.557-1.076,1.053,0,1.58.677,1.58,1.754v2.313a1.168,1.168,0,0,1-1.279,1.236" transform="translate(-84.272 24.138)" fill="#00338a"/>
    <path id="Path_114" data-name="Path 114" d="M262.488,80.177a1.676,1.676,0,0,1-.79,1.475c-.113.12-.376.439-.376.6v7.5a2.982,2.982,0,0,1-1.617,2.871,16.286,16.286,0,0,1-7.559,1.715c-8.387,0-13.766-7.377-13.766-15.034,0-7.7,5.379-15.075,13.953-15.075A18.042,18.042,0,0,1,259.4,65.86c1.392.758,1.015,2.234,1.015,3.589a5.047,5.047,0,0,1-.074.638,1.519,1.519,0,0,1-2.821.359c-.865-1.435-3.385-2.193-5.191-2.193-5.83,0-9.478,5.742-9.478,11.047,0,5.862,4.664,12.163,10.832,11.086a8.151,8.151,0,0,0,2.821-.877,1.248,1.248,0,0,0,.639-1.157v-6.1c0-.519-1.2-.918-1.2-2.074a1.628,1.628,0,0,1,1.767-1.675h2.971a1.656,1.656,0,0,1,1.806,1.675" transform="translate(-93.283 24.301)" fill="#00338a"/>
    <path id="Path_115" data-name="Path 115" d="M292.423,94.06H288.7a1.593,1.593,0,0,1-1.354-2.353c.3-.478.488-.558.188-1.157L283.4,82.773c-.339-.638-.452-.638-1.016-.638h-2.9a.831.831,0,0,0-.714.8v7.418c0,.12.3.438.451.558a1.7,1.7,0,0,1,.752,1.715,1.6,1.6,0,0,1-1.767,1.436h-2.971a1.626,1.626,0,0,1-1.767-1.436c0-1.755,1.165-1.675,1.165-2.273V68.218a.989.989,0,0,0-.225-.519,1.662,1.662,0,0,1,1.2-2.872h10.08a8.426,8.426,0,0,1,8.237,8.654,8.848,8.848,0,0,1-5.266,8.255c-.339.12-.564.439-.3.958l3.724,7.019c.113.2.414.8.827.956a1.738,1.738,0,0,1,1.317,1.8c0,1.236-.94,1.6-1.806,1.6m-7.672-25.005h-5.378a.629.629,0,0,0-.6.519V77.23c0,.6.339.638.6.638h5.378c2.858,0,4.814-1.515,4.814-4.506,0-2.871-1.993-4.307-4.814-4.307" transform="translate(-102.798 24.138)" fill="#00338a"/>
    <path id="Path_116" data-name="Path 116" d="M323.919,94.059h-17a1.626,1.626,0,0,1-1.241-2.672,2.889,2.889,0,0,0,.225-1.236V68.535c0-.478-.075-.638-.225-.8a1.861,1.861,0,0,1-.527-1.316,1.633,1.633,0,0,1,1.655-1.595h16.135a1.167,1.167,0,0,1,1.279,1.236v2.313c0,1.076-.527,1.754-1.58,1.754-1.391,0-.639-1.077-2.181-1.077h-9.667a.749.749,0,0,0-.676.719v6.46a.829.829,0,0,0,.714.837h7.635c.79,0,1.015,0,1.278-.2a1.87,1.87,0,0,1,1.2-.439,1.438,1.438,0,0,1,1.618,1.635V80.14a1.525,1.525,0,0,1-1.693,1.635,1.484,1.484,0,0,1-1.316-.677.868.868,0,0,0-.527-.12h-8.2a.809.809,0,0,0-.752.6v7.538a.718.718,0,0,0,.676.718h10.532c1.241,0,1.015-1.037,2.407-1.037a1.472,1.472,0,0,1,1.58,1.675V92.9c0,.8-.64,1.157-1.354,1.157" transform="translate(-111.389 24.138)" fill="#00338a"/>
    <path id="Path_117" data-name="Path 117" d="M354.984,94.059h-17a1.626,1.626,0,0,1-1.241-2.672,2.889,2.889,0,0,0,.225-1.236V68.535c0-.478-.075-.638-.225-.8a1.86,1.86,0,0,1-.527-1.316,1.633,1.633,0,0,1,1.655-1.595h16.135a1.167,1.167,0,0,1,1.279,1.236v2.313c0,1.076-.527,1.754-1.58,1.754-1.391,0-.639-1.077-2.181-1.077h-9.666a.749.749,0,0,0-.676.719v6.46a.829.829,0,0,0,.714.837h7.635c.79,0,1.015,0,1.278-.2a1.87,1.87,0,0,1,1.2-.439,1.438,1.438,0,0,1,1.618,1.635V80.14a1.525,1.525,0,0,1-1.693,1.635,1.484,1.484,0,0,1-1.316-.677.868.868,0,0,0-.527-.12h-8.2a.81.81,0,0,0-.752.6v7.538a.718.718,0,0,0,.676.718h10.532c1.241,0,1.015-1.037,2.407-1.037a1.472,1.472,0,0,1,1.58,1.675V92.9c0,.8-.64,1.157-1.354,1.157" transform="translate(-119.814 24.138)" fill="#00338a"/>
    <path id="Path_118" data-name="Path 118" d="M389.151,94.059H385.24a1.593,1.593,0,0,1-1.354-2.353c.3-.478.489-.6.188-1.2l-6.507-12.523c-.187-.359-.488-.4-.9-.079l-3.31,2.672a1.711,1.711,0,0,0-.564,1.316V90.35c0,.478,1.2.758,1.2,2.034a1.655,1.655,0,0,1-1.805,1.675h-2.934a1.629,1.629,0,0,1-1.768-1.675c0-1.316,1.2-1.516,1.2-2.034V68.535c0-.517-1.2-.718-1.2-2.034a1.629,1.629,0,0,1,1.768-1.674h2.934a1.655,1.655,0,0,1,1.805,1.674c0,1.316-1.165,1.517-1.165,2.034V75c0,.478.337.518.526.359,3.422-2.831,6.28-5.184,9.553-7.777.564-.4.037-.359.037-1.117a1.374,1.374,0,0,1,1.542-1.555h3.573a1.44,1.44,0,0,1,1.618,1.595A1.867,1.867,0,0,1,389,68.018l-7.3,5.862a1.131,1.131,0,0,0-.413,1.475l7.522,14.357c.113.2.415.8.828.957a1.833,1.833,0,0,1,1.353,1.8c0,1.236-.977,1.595-1.842,1.595" transform="translate(-128.294 24.138)" fill="#00338a"/>
    <path id="Path_119" data-name="Path 119" d="M197.658,130.057H187.407V118.809h10.267c3.253,0,4.888,1.227,4.888,3.678v2.96c0,3.449-1.079,4.61-4.9,4.61m2.386-6.294c0-2.419-.834-2.942-2.6-2.942h-7.422V128h7.291c1.749,0,2.714-.425,2.714-2.911Z" transform="translate(-79.461 9.5)" fill="#00338a"/>
    <path id="Path_120" data-name="Path 120" d="M224,130.057l-1.291-2.191h-8.419l-1.275,2.191H210.07l6.718-11.247h3.368l6.768,11.247Zm-5.525-9.318-3.139,5.3h6.294Z" transform="translate(-85.606 9.499)" fill="#00338a"/>
    <rect id="Rectangle_41" data-name="Rectangle 41" width="2.616" height="11.248" transform="translate(143.334 128.309)" fill="#00338a"/>
    <path id="Path_121" data-name="Path 121" d="M254.389,130.057l-5.608-3.711H246.1v3.711h-2.665V118.809h9.891c2.566,0,4.135.638,4.135,3.516v.735c0,2.092-.719,3.286-4.135,3.286h-.115l5.444,3.711Zm-1.227-9.253h-7.079v3.547h7.21c1.176,0,1.585-.311,1.585-1.045v-1.145c0-.867-.393-1.357-1.716-1.357" transform="translate(-94.654 9.5)" fill="#00338a"/>
    <rect id="Rectangle_42" data-name="Rectangle 42" width="2.616" height="11.248" transform="translate(166.359 128.309)" fill="#00338a"/>
    <path id="Path_122" data-name="Path 122" d="M275.138,130.057V118.809h12.294v1.93h-9.678v2.7h9.237v1.781h-9.237v2.861h9.825v1.978Z" transform="translate(-103.251 9.5)" fill="#00338a"/>
    <path id="Path_123" data-name="Path 123" d="M304.163,130.145h-4.431c-2.812,0-4.512-.49-4.512-2.943v-.8h2.567v.131c0,.113.016.26.016.375v.114c.066.931.622,1.243,2.076,1.243h4.708c1.553,0,2.289-.278,2.289-1.52,0-1.194-.508-1.406-3.842-1.406h-2.616c-4.185,0-5.2-.654-5.2-3.319,0-2.289.915-3.368,4.839-3.368h4.25c4.1,0,4.79,1.145,4.79,3.14v.375h-2.583c0-1.308-.147-1.635-3.09-1.635h-2.861c-1.945,0-2.779.2-2.779,1.423,0,1.16.441,1.455,3.629,1.455H305.7c2.681,0,3.711.931,3.777,2.829v.13c0,.115.016.261.016.391v.132c0,2.893-1.732,3.253-5.329,3.253" transform="translate(-108.697 9.542)" fill="#00338a"/>
    <g id="Group_135" data-name="Group 135" transform="translate(135.605 41.717)">
      <path id="Path_124" data-name="Path 124" d="M237.038,30.588a11.735,11.735,0,0,1-5.2-4.458,33.816,33.816,0,0,1-2.937-7.5,12.233,12.233,0,0,1,2.9-12.17c-4.159,3.218-6.658,7.638-6.431,11.811.31,5.963,5.706,10.644,12.834,12.8-.392-.154-.786-.3-1.167-.482" transform="translate(-225.356 -1.75)" fill="#00338a"/>
      <path id="Path_125" data-name="Path 125" d="M245.807.059a23.221,23.221,0,0,0-6.345,1.4,23.828,23.828,0,0,0-3.88,3.026,11.183,11.183,0,0,0-3.738,6.818,18.228,18.228,0,0,0,1.294,7.517c.829,2.466,1.654,5.029,3.752,6.725a16.98,16.98,0,0,0,7.121,3.051,13.922,13.922,0,0,0,14.162-5.581c2.963-4.288,3.567-10.323.046-14.448-2.86-3.35-7.848-5.517-12.25-4.8a10.231,10.231,0,0,0-6.336,4.188c-1.354,1.7-2.871,3.533-3.108,5.768-.493,4.647,3.556,8.232,7.626,9.578,4.227,1.4,8.9-.339,10.476-4.715,1.445-4.019-1.4-10.846-6.265-10.82-5.013.028-8.866,6.406-5.477,10.443,2.869,3.416,8.769,2,7.815-2.955-.315-1.635-1.9-4.433-3.969-3.564a1.622,1.622,0,0,0,.656,3.121c.51-.005,1.437-.61,1.863-.148.627.68-.362,1.751-.974,1.964-1.931.673-4.363-1.339-4.315-3.289.055-2.239,2.649-3.239,4.563-2.946,1.942.3,2.9,1.828,3.52,3.546.859,2.365.976,5.1-1.263,6.728a6.759,6.759,0,0,1-6.134.743c-3.709-1.336-6.274-6-4.173-9.664a14.042,14.042,0,0,1,5.175-4.784,6.038,6.038,0,0,1,6.66.688c3.736,2.826,5.75,8.368,3.559,12.7a10.379,10.379,0,0,1-6.316,5.134,11.21,11.21,0,0,1-6.9-.888c-3.974-1.626-8.169-5.788-7.964-10.393.2-4.565,4.447-9.16,8.421-10.968,4.6-2.1,10.156-.761,14.031,2.259a12.9,12.9,0,0,1,4.94,12.633,15.836,15.836,0,0,1-15.158,12.4c9.175.371,16.714-4.915,17.4-13.773.728-9.215-7.613-17.549-18.51-16.7" transform="translate(-227.102 0)" fill="#00338a"/>
    </g>
  </g>
</svg>
