<svg xmlns="http://www.w3.org/2000/svg" xmlns:xlink="http://www.w3.org/1999/xlink" width="371.495" height="381.932" viewBox="0 0 371.495 381.932">
  <defs>
    <clipPath id="clip-path">
      <rect id="Rectangle_46" data-name="Rectangle 46" width="371.495" height="381.932" fill="#fff"/>
    </clipPath>
  </defs>
  <g id="Group_126" data-name="Group 126" clip-path="url(#clip-path)">
    <path id="Path_143" data-name="Path 143" d="M364.6,78.072C329.515,34.29,266.269,7.425,211.423.851,149.927-6.527,87.811,35.328,46.405,76.988,5.921,117.728-10.105,168.564,6.448,224.137c8.609,28.94,18.411,60.444,33.849,86.488,13.843,23.358,35.738,39.8,59.925,51.362,52.686,25.17,116.133,27.361,169.036,1.7C318.3,339.907,357.326,292.3,368.637,238.6c11.629-55.148-13.262-111.527-56.929-145.569C267.074,58.237,203.085,42.845,150.043,67c-45.787,20.842-94.7,73.783-97.033,126.384-2.361,53.073,45.973,101.028,91.769,119.757,24.628,10.073,53.143,17.1,79.544,10.243,30.1-7.827,58.795-31.519,72.777-59.158,25.255-49.937,2.044-113.8-41.011-146.359-22.9-17.319-50.812-21.593-76.741-7.936-21.732,11.451-47.22,33.508-59.631,55.132-24.21,42.172,5.334,95.957,48.079,111.349,22.878,8.245,50.681,5.985,70.679-8.563,25.8-18.767,24.442-50.27,14.555-77.531-7.185-19.8-18.179-37.426-40.561-40.856-22.058-3.376-51.943,8.145-52.585,33.942-.565,22.476,27.469,45.656,49.713,37.9,7.045-2.454,18.457-14.8,11.234-22.631-4.909-5.327-15.593,1.649-21.477,1.7-20.695.186-26.7-27.9-7.549-35.963,23.784-10.018,42.1,22.236,45.726,41.073,10.994,57.145-56.991,73.412-90.042,34.05-39.052-46.515,5.358-120,63.115-120.322,56.062-.31,88.834,78.367,72.189,124.673-18.117,50.425-72.01,70.446-120.717,54.335C115.179,282.707,68.525,241.395,74.2,187.849c2.733-25.751,20.207-46.864,35.808-66.467,19.147-24.055,41.777-43.132,73.009-48.25C233.744,64.818,291.23,89.794,324.181,128.4c40.569,47.53,33.609,117.078-.526,166.473-36.148,52.306-101.872,76.888-163.191,64.315-28.275-5.8-59.282-16.747-82.044-35.15-24.179-19.541-33.686-49.078-43.233-77.492-9.322-27.725-17.869-57.045-14.919-86.612,3.112-31.263,20.958-57.246,43.078-78.568,39.787-38.363,102.577-74.7,159.1-62C278.672,32.014,335.593,56.634,363.4,109.614" transform="translate(0.002 0.003)" fill="#fff"/>
  </g>
</svg>
